# xmcd
#
# Track frame offsets:
# 183
# 32215
# 53865
# 70490
#
# Disc length: 1306 seconds
#
# Revision: 0
# Processed by: cddbd v1.5.1PL0 Copyright (c) Steve Scherf et al.
# Submitted via: Audion 3.0.2 (http://www.panic.com/audion/)
#
DISCID=36051804
DTITLE=shoulders - no title
DYEAR=1900
DGENRE=
TTITLE0=trashman shoes
TTITLE1=odyssey
TTITLE2=charm
TTITLE3=each little cannibal
EXTD=
EXTT0=
EXTT1=
EXTT2=
EXTT3=
PLAYORDER=
